<svg width="100%" height="100%" viewBox="0 0 64 64" fill="none" xmlns="http://www.w3.org/2000/svg">
<path opacity="0.2" d="M44.25 11.8751L32 18.7751L19.75 11.8751L31.025 5.55007C31.3214 5.37892 31.6577 5.28882 32 5.28882C32.3423 5.28882 32.6786 5.37892 32.975 5.55007L44.25 11.8751ZM44 38.4751V52.2501L54.975 46.0751C55.2846 45.8992 55.5424 45.6449 55.7224 45.3376C55.9023 45.0304 55.9981 44.6811 56 44.3251V31.7251L44 38.4751ZM8 44.3251C8.00191 44.6811 8.09768 45.0304 8.27763 45.3376C8.45759 45.6449 8.71538 45.8992 9.025 46.0751L20 52.2501V38.4751L8 31.7251V44.3251Z" fill="black"></path>
<path d="M58 19.675C58.0037 18.9817 57.8224 18.3 57.475 17.7H57.45C57.0956 17.0795 56.5764 16.569 55.95 16.225L33.95 3.85004C33.354 3.51724 32.6827 3.34253 32 3.34253C31.3173 3.34253 30.646 3.51724 30.05 3.85004L8.05 16.225C7.4288 16.576 6.91135 17.0848 6.55 17.7C6.55 17.7067 6.54737 17.713 6.54268 17.7177C6.53799 17.7224 6.53163 17.725 6.525 17.725V17.775C6.1837 18.3502 6.00243 19.0062 6 19.675V44.325C6.00126 45.0377 6.19171 45.7372 6.55189 46.3521C6.91206 46.9671 7.42904 47.4754 8.05 47.825L30.05 60.2C30.6039 60.5022 31.2197 60.6732 31.85 60.7H32.175C32.7974 60.673 33.405 60.5018 33.95 60.2L55.95 47.825C56.571 47.4754 57.0879 46.9671 57.4481 46.3521C57.8083 45.7372 57.9987 45.0377 58 44.325V19.675ZM42 38.475V51.075L34.025 55.575L34.225 33.175L54 21.925V30.55L43.025 36.75C42.7156 36.9198 42.4574 37.1693 42.2771 37.4727C42.0969 37.776 42.0012 38.1222 42 38.475ZM20.975 36.75L10 30.55V21.9L30.225 33.175L30.025 55.6L22 51.075V38.475C21.9988 38.1222 21.9031 37.776 21.7229 37.4727C21.5426 37.1693 21.2844 36.9198 20.975 36.75ZM19.75 14.175L31.025 20.5C31.3188 20.6789 31.6561 20.7735 32 20.7735C32.3439 20.7735 32.6812 20.6789 32.975 20.5L44.25 14.175L51.925 18.5L32.225 29.7L12.1 18.5L19.75 14.175ZM32 7.30004L40.15 11.875L32 16.475L23.85 11.875L32 7.30004ZM10 35.15L18 39.65V48.825L10 44.325V35.15ZM46 48.825V39.65L54 35.15V44.325L46 48.825Z" fill="currentColor"></path>
</svg>