<svg width="84" height="84" viewBox="0 0 84 84" fill="none" xmlns="http://www.w3.org/2000/svg">
<path opacity="0.2" d="M61.6875 31.5C66.7616 31.5 70.875 27.3866 70.875 22.3125C70.875 17.2384 66.7616 13.125 61.6875 13.125C56.6134 13.125 52.5 17.2384 52.5 22.3125C52.5 27.3866 56.6134 31.5 61.6875 31.5Z" fill="black"></path>
<path d="M73.5 22.3125C73.5 20.0888 72.8723 17.9103 71.6892 16.0275C70.5061 14.1447 68.8155 12.6341 66.8119 11.6694C64.8084 10.7047 62.5732 10.3252 60.3636 10.5744C58.1539 10.8237 56.0595 11.6916 54.3211 13.0783C52.5828 14.465 51.2712 16.3142 50.5372 18.4132C49.8031 20.5123 49.6765 22.7759 50.1718 24.9437C50.6671 27.1115 51.7643 29.0955 53.3371 30.6674C54.9099 32.2394 56.8944 33.3355 59.0625 33.8296V34.125C59.0625 35.5173 58.5094 36.8527 57.5248 37.8373C56.5403 38.8218 55.2049 39.375 53.8125 39.375H30.1875C28.3444 39.3793 26.5345 39.8657 24.9375 40.7859V33.8296C27.7691 33.1843 30.2637 31.5184 31.9448 29.1503C33.6259 26.7821 34.3757 23.8777 34.051 20.9917C33.7262 18.1058 32.3497 15.4406 30.1844 13.5052C28.0191 11.5699 25.2167 10.5 22.3125 10.5C19.4084 10.5 16.606 11.5699 14.4406 13.5052C12.2753 15.4406 10.8988 18.1058 10.5741 20.9917C10.2494 23.8777 10.9992 26.7821 12.6803 29.1503C14.3614 31.5184 16.856 33.1843 19.6875 33.8296V50.1703C16.856 50.8156 14.3614 52.4815 12.6803 54.8496C10.9992 57.2178 10.2494 60.1222 10.5741 63.0082C10.8988 65.8942 12.2753 68.5594 14.4406 70.4947C16.606 72.4301 19.4084 73.4999 22.3125 73.4999C25.2167 73.4999 28.0191 72.4301 30.1844 70.4947C32.3497 68.5594 33.7262 65.8942 34.051 63.0082C34.3757 60.1222 33.6259 57.2178 31.9448 54.8496C30.2637 52.4815 27.7691 50.8156 24.9375 50.1703V49.875C24.9375 48.4826 25.4907 47.1472 26.4752 46.1627C27.4598 45.1781 28.7951 44.625 30.1875 44.625H53.8125C56.5973 44.625 59.268 43.5187 61.2371 41.5496C63.2063 39.5804 64.3125 36.9097 64.3125 34.125V33.8296C66.9195 33.2294 69.2464 31.7644 70.9147 29.6732C72.5829 27.5819 73.4941 24.9876 73.5 22.3125ZM15.75 22.3125C15.75 21.0145 16.1349 19.7457 16.856 18.6665C17.5771 17.5873 18.602 16.7462 19.8012 16.2495C21.0003 15.7528 22.3198 15.6228 23.5928 15.8761C24.8658 16.1293 26.0351 16.7543 26.9529 17.6721C27.8707 18.5899 28.4957 19.7592 28.7489 21.0322C29.0021 22.3052 28.8722 23.6247 28.3755 24.8238C27.8788 26.023 27.0377 27.0479 25.9585 27.769C24.8793 28.4901 23.6105 28.875 22.3125 28.875C20.5747 28.8663 18.9105 28.1722 17.6817 26.9433C16.4528 25.7145 15.7587 24.0503 15.75 22.3125ZM28.875 61.6875C28.875 62.9854 28.4901 64.2542 27.769 65.3334C27.048 66.4126 26.023 67.2537 24.8239 67.7504C23.6247 68.2471 22.3052 68.3771 21.0322 68.1239C19.7592 67.8706 18.5899 67.2456 17.6721 66.3278C16.7544 65.4101 16.1293 64.2407 15.8761 62.9677C15.6229 61.6947 15.7529 60.3752 16.2496 59.1761C16.7463 57.977 17.5874 56.952 18.6666 56.2309C19.7458 55.5098 21.0146 55.125 22.3125 55.125C24.0504 55.1336 25.7145 55.8278 26.9434 57.0566C28.1722 58.2854 28.8664 59.9496 28.875 61.6875ZM61.6875 28.875C60.3896 28.875 59.1208 28.4901 58.0416 27.769C56.9624 27.0479 56.1213 26.023 55.6246 24.8238C55.1279 23.6247 54.9979 22.3052 55.2511 21.0322C55.5043 19.7592 56.1294 18.5899 57.0471 17.6721C57.9649 16.7543 59.1342 16.1293 60.4072 15.8761C61.6802 15.6228 62.9998 15.7528 64.1989 16.2495C65.398 16.7462 66.423 17.5873 67.1441 18.6665C67.8651 19.7457 68.25 21.0145 68.25 22.3125C68.2414 24.0503 67.5472 25.7145 66.3184 26.9433C65.0895 28.1722 63.4254 28.8663 61.6875 28.875Z" fill="currentColor"></path>
</svg>