<svg width="100%" height="100%" viewBox="0 0 160 56" fill="none" xmlns="http://www.w3.org/2000/svg">
<path d="M42.46 2.23633H42.277C41.2808 2.25666 40.2236 2.49452 39.1461 2.893C36.9809 3.68792 34.6328 5.16288 32.244 7.24268C31.7764 7.65031 31.2986 8.08741 30.8208 8.54484C30.5057 8.23989 30.1906 7.95526 29.8755 7.67064C27.3443 5.42616 24.8539 3.84751 22.5769 2.99668C21.4384 2.57178 20.3304 2.31663 19.2935 2.29224C18.2567 2.26682 17.291 2.47013 16.4473 2.96212C14.8005 3.91053 13.906 5.7789 13.5197 8.04675C13.1232 10.3278 13.2249 13.0927 13.8348 16.2033C13.9568 16.8234 14.0991 17.4536 14.2617 18.1042C13.5298 18.3075 12.8183 18.5311 12.1474 18.7649C9.18626 19.7916 6.79135 21.0927 5.0714 22.5565C3.35145 24.0305 2.23633 25.7382 2.23633 27.5985C2.23633 29.5197 3.40837 31.2986 5.22083 32.8437C7.03328 34.399 9.56238 35.7814 12.6861 36.8386C13.1842 37.0114 13.6925 37.1741 14.2211 37.3265C14.0483 38.0178 13.8958 38.6988 13.7738 39.3596C13.1944 42.4396 13.1232 45.1639 13.5298 47.3901C13.9466 49.6163 14.8717 51.4358 16.4879 52.3608C18.1448 53.3265 20.2694 53.1944 22.526 52.4015C24.7725 51.6086 27.2224 50.1042 29.7027 47.9288C30.0991 47.5832 30.4955 47.2173 30.892 46.831C31.4104 47.3291 31.9288 47.8069 32.4473 48.2439C34.8157 50.2872 37.1334 51.7103 39.2681 52.4625C41.4028 53.2147 43.446 53.3265 45.0521 52.3913C46.7192 51.4257 47.6645 49.5248 48.1016 47.1766C48.5387 44.8284 48.4574 41.9517 47.817 38.7192C47.7154 38.2211 47.6035 37.7027 47.4816 37.1944C47.8373 37.0826 48.1931 36.9708 48.5387 36.8589C51.7509 35.8018 54.3634 34.4396 56.2439 32.8945C58.1245 31.3494 59.3443 29.5603 59.3443 27.5985C59.3443 25.7077 58.1753 24 56.4066 22.5159C54.6379 21.0419 52.188 19.7408 49.1893 18.7141C48.5997 18.5108 47.9898 18.3176 47.3596 18.1347C47.4612 17.7179 47.5629 17.3011 47.6442 16.8844C48.3253 13.5705 48.4473 10.6226 48.0508 8.22057C47.6442 5.81956 46.709 3.86784 45.0114 2.88792C44.249 2.44471 43.3748 2.24344 42.46 2.23633ZM42.2872 4.69122C42.9276 4.67496 43.4358 4.79287 43.7916 5.00126C44.5642 5.44344 45.3062 6.63277 45.6417 8.61701C45.9771 10.6124 45.8856 13.296 45.2452 16.3863C45.1639 16.7624 45.0826 17.1385 44.9911 17.5248C42.6328 16.9758 40.061 16.5692 37.357 16.3151C35.8018 14.0991 34.1753 12.0661 32.5286 10.2872C32.9758 9.86733 33.4028 9.46072 33.8399 9.08461C36.0661 7.15221 38.2109 5.83582 39.9898 5.18322C40.8742 4.85691 41.6467 4.70748 42.2872 4.69122ZM19.0292 4.74713H19.2732C19.9542 4.76644 20.7776 4.9301 21.723 5.28182C23.6137 5.98728 25.9009 7.40634 28.249 9.50037C28.5337 9.7545 28.8183 10.0188 29.1029 10.2973C27.4561 12.0661 25.8196 14.0889 24.244 16.3049C21.5502 16.5591 18.9784 16.9657 16.6302 17.4943C16.4778 16.8945 16.3456 16.3049 16.2338 15.7357C15.6645 12.8488 15.6035 10.3278 15.9187 8.46352C16.244 6.60024 16.9453 5.49224 17.6671 5.07343C18.0025 4.87928 18.46 4.76034 19.0292 4.74611V4.74713ZM30.8208 12.0457C31.9492 13.2554 33.0673 14.6175 34.1753 16.0915C33.0673 16.0406 31.9288 16.0102 30.7903 16.0102C29.662 16.0102 28.5438 16.0406 27.4358 16.0915C28.554 14.6175 29.6925 13.2656 30.8208 12.0457ZM76.9708 14.465V37.7636H79.878V28.5032H84.5235L90.46 37.7636H93.8856L87.5934 28.2592C90.7751 27.9746 93.6417 25.6772 93.6417 21.479C93.6417 17.1893 90.6023 14.465 86.3329 14.465H76.9708ZM150.851 16.2744V20.8894H148.107V23.1969H150.851V34.2363C150.851 36.7471 152.173 38.1804 154.612 38.1804C156.137 38.1804 157.154 37.723 157.764 37.0927L156.95 35.141C156.645 35.5273 155.934 35.8424 155.222 35.8424C154.104 35.8424 153.494 34.9276 153.494 33.6772V23.1969H156.95V20.8894H153.494V16.2744H150.851ZM79.878 17.047H85.9873C88.7421 17.047 90.6328 18.8666 90.6328 21.479C90.6328 24.1016 88.7421 25.9517 85.9873 25.9517H79.878V17.047ZM30.7903 18.4498C32.5692 18.4498 34.3075 18.521 35.9949 18.6429C36.9504 20.0457 37.8755 21.5197 38.7598 23.0445C39.6442 24.5692 40.4676 26.1042 41.2096 27.6188C40.4676 29.1537 39.6544 30.709 38.7598 32.244C37.8755 33.7789 36.9606 35.2528 36.0152 36.6658C34.3176 36.7878 32.5692 36.8488 30.7903 36.8488C29.0318 36.8488 27.3037 36.7878 25.6163 36.6861C24.6607 35.2732 23.7255 33.7992 22.831 32.2643C21.9365 30.7293 21.1232 29.1842 20.3913 27.6595C21.1232 26.1245 21.9365 24.5896 22.8208 23.0546C23.7052 21.5197 24.6404 20.0457 25.5959 18.6429C27.2833 18.521 29.0216 18.4498 30.7903 18.4498ZM22.4549 18.9581C21.8551 19.8933 21.2757 20.8488 20.7065 21.8348C20.1372 22.8208 19.6086 23.8068 19.1004 24.7827C18.3786 23.0953 17.7789 21.4384 17.2808 19.8526C18.9072 19.4866 20.6353 19.1919 22.4549 18.9581ZM39.1258 18.9682C40.9555 19.1919 42.7039 19.507 44.3304 19.8729C43.8424 21.4587 43.2224 23.1054 42.5006 24.7929C41.9822 23.8068 41.4333 22.8107 40.864 21.8246C40.2948 20.8488 39.7154 19.8933 39.1258 18.9682ZM14.9123 20.4523C15.6239 22.7598 16.5591 25.1893 17.6976 27.6595C16.5387 30.1703 15.5934 32.6302 14.8717 34.9682C14.3939 34.8361 13.9263 34.6836 13.4689 34.5311C10.5819 33.5451 8.30291 32.2744 6.80761 30.9936C5.3113 29.7128 4.67597 28.4727 4.67597 27.5985C4.67597 26.7548 5.2564 25.6163 6.65717 24.4168C8.05691 23.2173 10.2058 22.0178 12.9504 21.0622C13.5705 20.8488 14.2312 20.6455 14.9123 20.4523ZM103.99 20.4727C99.1614 20.4727 95.6645 24.4168 95.6645 29.3062C95.6645 34.5819 99.263 38.1804 104.193 38.1804C106.938 38.1804 109.276 37.2757 110.902 35.5985L109.682 33.8805C108.361 35.2427 106.429 36.0152 104.498 36.0152C100.869 36.0152 98.6328 33.3621 98.4295 30.1804H112.02V29.5197C112.02 24.4473 109.072 20.4727 103.99 20.4727ZM122.084 20.4727C119.339 20.4727 117.205 21.3774 115.375 23.2681L116.595 25.0775C118.119 23.4714 119.746 22.7395 121.779 22.7395C124.219 22.7395 126.048 24.0305 126.048 26.3075V29.3469C124.625 27.7713 122.694 27.0394 120.457 27.0394C117.611 27.0394 114.562 28.8183 114.562 32.5896C114.562 36.2592 117.611 38.1804 120.457 38.1804C122.694 38.1804 124.625 37.3774 126.048 35.8424V37.7636H128.59V26.1652C128.59 22.0788 125.642 20.4727 122.084 20.4727ZM140.788 20.4727C135.807 20.4727 132.351 24.3151 132.351 29.3062C132.351 34.338 135.807 38.1804 140.788 38.1804C143.837 38.1804 145.667 36.9199 146.989 35.2427L145.26 33.6366C144.142 35.141 142.719 35.8424 140.991 35.8424C137.332 35.8424 135.095 33.047 135.095 29.3062C135.095 25.5654 137.332 22.8107 140.991 22.8107C142.719 22.8107 144.142 23.4714 145.26 25.0063L146.989 23.4002C145.667 21.723 143.837 20.4727 140.788 20.4727ZM46.709 20.4828C47.2884 20.6556 47.8577 20.8386 48.3964 21.0216C51.1817 21.9771 53.3977 23.1766 54.8513 24.3964C56.2948 25.6061 56.9047 26.7649 56.9047 27.5985C56.9047 28.4828 56.2541 29.723 54.6988 31.0038C53.1334 32.2846 50.7649 33.5553 47.7764 34.5514C47.4612 34.6531 47.1461 34.7547 46.8208 34.8462C46.0889 32.5286 45.1029 30.0889 43.9237 27.6188C45.0622 25.1791 45.9974 22.7802 46.709 20.4828ZM30.7903 22.5057C29.4402 22.5076 28.146 23.0447 27.1913 23.9994C26.2366 24.9541 25.6995 26.2484 25.6976 27.5985C25.6968 28.9503 26.2327 30.2472 27.1877 31.2041C28.1427 32.1609 29.4385 32.6995 30.7903 32.7014C31.4606 32.7018 32.1243 32.5701 32.7436 32.3138C33.3629 32.0575 33.9256 31.6816 34.3995 31.2077C34.8735 30.7337 35.2493 30.171 35.5056 29.5517C35.7619 28.9324 35.8937 28.2687 35.8933 27.5985C35.8914 26.2466 35.3528 24.9508 34.3959 23.9958C33.4391 23.0409 32.1422 22.5049 30.7903 22.5057ZM103.888 22.6379C107.751 22.6379 109.377 25.7484 109.479 28.2592H98.4295C98.5616 25.6772 100.351 22.6379 103.888 22.6379ZM121.372 28.9199C123.202 28.9199 125.032 29.6213 126.048 31.014V34.1957C125.032 35.5985 123.202 36.2897 121.372 36.2897C118.933 36.2897 117.205 34.7548 117.205 32.6302C117.205 30.4549 118.933 28.9199 121.372 28.9199ZM42.5311 30.4447C43.2833 32.1728 43.9339 33.8602 44.4422 35.4663C42.7852 35.8424 40.9962 36.1474 39.1258 36.371C39.7154 35.4257 40.3049 34.4498 40.8742 33.4638C41.4536 32.4574 42.0025 31.4511 42.5311 30.4447ZM19.1004 30.526C19.6086 31.5121 20.1474 32.4981 20.7166 33.4841C21.296 34.4803 21.8958 35.4562 22.5057 36.4117C20.6556 36.2084 18.8869 35.9237 17.2503 35.568C17.7484 33.9517 18.3685 32.2643 19.1004 30.526ZM45.1131 37.8145C45.2351 38.2821 45.3367 38.7497 45.4282 39.1969C46.0178 42.1855 46.0584 44.798 45.7027 46.7293C45.3469 48.6709 44.5845 49.8399 43.8323 50.277C43.1004 50.7039 41.8196 50.7751 40.0813 50.1652C38.3431 49.5451 36.2287 48.2846 34.033 46.3939C33.5553 45.9873 33.0775 45.5502 32.5997 45.0826C34.2363 43.2935 35.8424 41.2401 37.3875 39.0038C40.1321 38.7598 42.7344 38.3634 45.1131 37.8145ZM16.5896 37.9263C18.9682 38.4549 21.5603 38.8208 24.2846 39.0343C25.8704 41.2706 27.5273 43.3138 29.1842 45.0927C28.8183 45.4485 28.4625 45.784 28.0966 46.0991C25.8094 48.1016 23.5629 49.4434 21.7128 50.094C19.8526 50.7547 18.46 50.6836 17.7077 50.2465C16.9758 49.8297 16.2744 48.7522 15.9288 46.9428C15.5934 45.1334 15.634 42.6734 16.1728 39.817C16.2846 39.2071 16.4269 38.5769 16.5896 37.9263ZM34.2363 39.2071C33.1283 40.7116 32.0102 42.094 30.892 43.3342C29.7433 42.094 28.5845 40.7115 27.4562 39.2274C28.554 39.2681 29.662 39.2884 30.7903 39.2884C31.9492 39.2884 33.0978 39.2579 34.2363 39.2071Z" fill="currentColor"></path>
</svg>