<svg width="100%" height="100%" viewBox="0 0 82 82" fill="none" xmlns="http://www.w3.org/2000/svg">
<path opacity="0.2" d="M41 71.75C57.9828 71.75 71.75 57.9828 71.75 41C71.75 24.0172 57.9828 10.25 41 10.25C24.0172 10.25 10.25 24.0172 10.25 41C10.25 57.9828 24.0172 71.75 41 71.75Z" fill="black"></path>
<path d="M74.3125 41C74.304 32.1676 70.7916 23.6993 64.5461 17.4539C58.3007 11.2084 49.8324 7.69598 41 7.6875C32.165 7.6875 23.6918 11.1972 17.4445 17.4445C11.1972 23.6918 7.6875 32.165 7.6875 41C7.6875 49.835 11.1972 58.3082 17.4445 64.5555C23.6918 70.8028 32.165 74.3125 41 74.3125C49.8324 74.304 58.3007 70.7916 64.5461 64.5461C70.7916 58.3007 74.304 49.8324 74.3125 41ZM69.0594 38.4375H56.3109C55.7984 28.9562 52.4672 20.1797 46.8617 13.4211C52.743 14.6845 58.0675 17.7922 62.0601 22.2917C66.0526 26.7912 68.5047 32.4477 69.0594 38.4375ZM30.8461 43.5625H51.1539C50.5773 52.7875 46.8937 61.4039 41 67.3937C35.1063 61.4039 31.4227 52.7875 30.8461 43.5625ZM30.8461 38.4375C31.4227 29.2125 35.1063 20.5961 41 14.6062C46.8937 20.5961 50.5773 29.2125 51.1539 38.4375H30.8461ZM35.1383 13.4211C29.5328 20.1797 26.2016 28.9562 25.6891 38.4375H12.9406C13.4953 32.4477 15.9474 26.7912 19.9399 22.2917C23.9325 17.7922 29.257 14.6845 35.1383 13.4211ZM12.9406 43.5625H25.6891C26.2016 53.0438 29.5328 61.8203 35.1383 68.5789C29.257 67.3155 23.9325 64.2078 19.9399 59.7083C15.9474 55.2088 13.4953 49.5523 12.9406 43.5625ZM46.8617 68.5789C52.4672 61.8203 55.7984 53.0438 56.3109 43.5625H69.0594C68.5047 49.5523 66.0526 55.2088 62.0601 59.7083C58.0675 64.2078 52.743 67.3155 46.8617 68.5789Z" fill="currentColor"></path>
</svg>