<svg width="100%" height="100%" viewBox="0 0 160 20" fill="none" xmlns="http://www.w3.org/2000/svg">
<path d="M16.5337 0C12.1237 0 9.375 2.2225 8.28125 6.62625C9.93625 4.41 11.875 3.59375 14.0625 4.155C15.3125 4.4675 16.2212 5.37625 17.2162 6.40625C18.8425 8.06125 20.7175 9.97125 24.815 9.97125C29.2187 9.97125 31.9675 7.74875 33.0612 3.345C31.4062 5.56125 29.4675 6.3775 27.28 5.81625C26.03 5.50375 25.1275 4.595 24.1262 3.565C22.5 1.91 20.625 0 16.5337 0ZM8.2525 9.9075C3.8425 9.9075 1.09375 12.1237 0 16.5325C1.655 14.3112 3.59375 13.5012 5.78125 14.0625C7.03125 14.375 7.94 15.2837 8.935 16.3137C10.5612 17.9687 12.4362 19.8787 16.5337 19.8787C20.9375 19.8787 23.6862 17.6562 24.78 13.2525C23.125 15.4687 21.1862 16.285 18.9987 15.7175C17.7487 15.405 16.8462 14.5025 15.845 13.4725C14.2475 11.8112 12.3725 9.9075 8.2525 9.9075Z" fill="currentColor"></path>
<path d="M49.595 8.34494H46.7187V13.9412C46.7187 15.4399 47.685 15.4049 49.5937 15.3124V17.5637C45.7187 18.0324 44.19 16.9674 44.19 13.9412V8.34494H42.06V5.93744H44.19V2.81244L46.69 2.06619V5.93744H49.56V8.34494H49.595ZM60.595 5.93744H63.095V17.5637H60.595V15.8737C59.7162 17.0949 58.345 17.8474 56.5325 17.8474C53.3737 17.8474 50.7525 15.1562 50.7525 11.7187C50.7525 8.25244 53.3737 5.59619 56.5337 5.59619C58.345 5.59619 59.7162 6.34244 60.5962 7.56369L60.595 5.93744ZM56.9037 15.4687C58.9987 15.4687 60.5962 13.9062 60.5962 11.7537C60.5962 9.59494 58.9987 8.03244 56.9037 8.03244C54.815 8.03244 53.2175 9.59494 53.2175 11.7537C53.2525 13.9062 54.8137 15.4687 56.9037 15.4687ZM67.28 4.18994C66.4062 4.18994 65.6887 3.43744 65.6887 2.59244C65.6887 1.71869 66.4062 1.00119 67.28 1.00119C68.155 1.00119 68.8775 1.71869 68.8775 2.59244C68.9062 3.43744 68.1537 4.18994 67.28 4.18994ZM66.03 17.5637V5.93869H68.53V17.5637H66.03ZM71.435 17.5637V0.596191H73.935V17.5637H71.435ZM90.2837 5.93869H92.94L89.2825 17.5637H86.8112L84.4037 9.72244L81.9675 17.5637H79.5025L75.845 5.93869H78.5L80.75 13.9699L83.1875 5.93744H85.595L87.9963 13.9699L90.2837 5.93869ZM96.03 4.18869C95.1562 4.18869 94.4387 3.43869 94.4387 2.59244C94.4387 1.71869 95.1562 1.00119 96.03 1.00119C96.905 1.00119 97.6275 1.71869 97.6275 2.59244C97.6562 3.43744 96.9387 4.18869 96.03 4.18869ZM94.78 17.5637V5.93869H97.28V17.5637H94.78ZM106.314 5.62619C108.906 5.62619 110.781 7.40744 110.781 10.4049V17.5637H108.281V10.6887C108.281 8.90619 107.251 8.00369 105.689 8.00369C104.034 8.00369 102.72 8.96994 102.72 11.3424V17.5924H100.22V5.97244H102.72V7.47119C103.501 6.22119 104.751 5.62619 106.314 5.62619ZM122.72 1.28494H125.22V17.5637H122.72V15.8737C121.845 17.0949 120.469 17.8474 118.657 17.8474C115.497 17.8474 112.876 15.1562 112.876 11.7187C112.876 8.25244 115.497 5.59619 118.657 5.59619C120.469 5.59619 121.845 6.34244 122.72 7.56369V1.28494ZM119.032 15.4687C121.122 15.4687 122.72 13.9062 122.72 11.7537C122.72 9.59494 121.122 8.03244 119.032 8.03244C116.939 8.03244 115.341 9.59494 115.341 11.7537C115.341 13.9062 116.937 15.4687 119.032 15.4687ZM133.622 17.8762C130.127 17.8762 127.471 15.1912 127.471 11.7537C127.471 8.28119 130.092 5.62494 133.622 5.62494C135.909 5.62494 137.876 6.81244 138.814 8.62869L136.655 9.87869C136.157 8.78494 135 8.09619 133.594 8.09619C131.534 8.09619 130 9.65869 130 11.7537C130 13.8424 131.562 15.4049 133.594 15.4049C135 15.4049 136.122 14.6874 136.69 13.6287L138.842 14.8437C137.905 16.6899 135.909 17.8762 133.622 17.8762ZM143.032 9.12619C143.032 11.2512 149.282 9.97119 149.282 14.2824C149.282 16.5974 147.251 17.8762 144.751 17.8762C142.436 17.8762 140.751 16.8112 140 15.1562L142.159 13.9062C142.529 14.9712 143.466 15.5962 144.751 15.5962C145.874 15.5962 146.719 15.2199 146.719 14.2824C146.719 12.2224 140.469 13.3737 140.469 9.21994C140.469 7.03244 142.344 5.65994 144.716 5.65994C146.626 5.65994 148.217 6.53369 149.034 8.06119L146.904 9.25369C146.499 8.34494 145.689 7.93994 144.716 7.93994C143.814 7.90494 143.032 8.31494 143.032 9.12619ZM153.75 9.12619C153.75 11.2512 160 9.97119 160 14.2824C160 16.5974 157.969 17.8762 155.469 17.8762C153.154 17.8762 151.469 16.8112 150.719 15.1562L152.876 13.9062C153.251 14.9712 154.189 15.5962 155.469 15.5962C156.591 15.5962 157.436 15.2199 157.436 14.2824C157.436 12.2224 151.186 13.3737 151.186 9.21994C151.186 7.03244 153.061 5.65994 155.44 5.65994C157.344 5.65994 158.935 6.53369 159.751 8.06119L157.626 9.25369C157.216 8.34494 156.406 7.93994 155.439 7.93994C154.531 7.90494 153.75 8.31494 153.75 9.12619Z" fill="currentColor"></path>
</svg>