<svg width="100%" height="100%" viewBox="0 0 161 40" fill="none" xmlns="http://www.w3.org/2000/svg">
<g clip-path="url(#clip0_17_68)">
<path d="M20.6885 4.10891H12.4853V29.4576H9.16034V4.10891H0.957214V1.07266H20.6153V4.10265H20.6891L20.6885 4.10891ZM36.431 9.20765L27.1185 32.7089C25.4185 36.9214 23.1278 38.9902 20.0978 38.9902C19.2853 38.9902 18.546 38.9164 17.9541 38.7683V35.8851C18.6191 36.107 19.2841 36.2602 19.8753 36.2602C21.5003 36.2602 22.7578 35.2995 23.5703 33.3039L25.1953 29.4601L17.2878 9.21015H20.9091L26.3778 24.8039C26.4516 25.0258 26.5997 25.5427 26.8153 26.3558H26.9628C27.0366 26.0602 27.1847 25.5433 27.3378 24.8776L33.1022 9.21015H36.4272L36.431 9.20765ZM41.8997 26.5751H41.8322V38.8439H38.5803V9.28265H41.8322V12.8301H41.906C43.531 10.1695 45.8228 8.76578 48.9266 8.76578C51.5141 8.76578 53.5828 9.65328 55.0603 11.5002C56.5378 13.347 57.2772 15.7126 57.2772 18.8164C57.2772 22.2164 56.4647 24.9501 54.8385 26.9458C53.2122 28.9414 50.9216 29.9758 48.0385 29.9758C45.3778 29.9758 43.3822 28.867 41.9047 26.5758L41.8997 26.5751ZM41.8322 18.3727V21.1808C41.8322 22.8808 42.3497 24.2845 43.4572 25.467C44.5647 26.6495 45.896 27.2408 47.596 27.2408C49.5916 27.2408 51.0697 26.502 52.2522 24.9495C53.4347 23.397 53.9522 21.3283 53.9522 18.6683C53.9522 16.377 53.4347 14.6776 52.4003 13.347C51.366 12.097 49.9616 11.4258 48.1878 11.4258C46.2666 11.4258 44.7878 12.0908 43.6066 13.4214C42.4253 14.752 41.8322 16.3764 41.8322 18.3727ZM77.306 20.1464H62.9685C63.0422 22.4376 63.6335 24.137 64.816 25.3933C65.9985 26.6495 67.5503 27.2408 69.6197 27.2408C71.911 27.2408 73.9797 26.502 75.901 24.9495V27.9795C74.1272 29.3095 71.7622 29.9008 68.806 29.9008C65.9235 29.9008 63.706 29.0133 62.081 27.1664C60.456 25.3195 59.6422 22.732 59.6422 19.4064C59.6422 16.2283 60.5297 13.7158 62.3028 11.7208C64.076 9.72578 66.2935 8.76452 68.9541 8.76452C71.6147 8.76452 73.6841 9.65203 75.0878 11.352C76.566 13.052 77.2316 15.4164 77.2316 18.5208V20.1458H77.3053L77.306 20.1464ZM73.981 17.412C73.981 15.5645 73.5435 14.087 72.651 13.052C71.7585 12.017 70.5072 11.5002 68.956 11.5002C67.4047 11.5002 66.1478 12.0177 65.0391 13.1252C64.0047 14.2339 63.3391 15.6377 63.0435 17.4114L73.981 17.412ZM79.081 28.4976V26.2808C81.1435 27.6108 83.1453 28.202 85.2891 28.202C87.506 28.202 89.206 27.7645 90.3141 26.7976C91.4966 25.9101 92.0141 24.5808 92.0141 22.9539C92.0141 21.4758 91.6391 20.3664 90.8316 19.4802C90.0928 18.5927 88.3928 17.4177 85.8066 15.9327C82.9241 14.2327 81.0766 12.8289 80.3378 11.7201C79.5624 10.5614 79.1506 9.19753 79.1553 7.80327C79.1553 5.80765 79.9678 4.10827 81.5203 2.70327C83.0728 1.29827 85.1391 0.634521 87.7266 0.634521C89.4266 0.634521 91.1266 0.930155 92.8266 1.52203V3.58452C91.1489 2.84996 89.3368 2.47239 87.5053 2.47578C85.5841 2.47578 84.0316 2.99327 82.9241 3.9539C81.8166 4.91452 81.2241 6.17077 81.2241 7.64889C81.2241 9.12702 81.5991 10.2364 82.4066 11.1227C83.1453 12.0102 84.8453 13.1183 87.4316 14.5964C90.0922 16.0745 91.866 17.4045 92.7528 18.587C93.6397 19.7695 94.0828 21.0995 94.0828 22.6514C94.0828 24.7952 93.3441 26.5683 91.7916 27.9726C90.3135 29.377 88.1703 30.0352 85.3622 30.0352C84.4016 30.0352 83.2997 29.8876 81.9622 29.5976C80.7797 29.2226 79.8185 28.8589 79.0797 28.4889L79.081 28.4976ZM111.228 28.5714C109.75 29.4589 107.903 29.9758 105.833 29.9758C103.099 29.9758 100.882 29.0151 99.1822 27.1676C97.4822 25.2464 96.6697 22.8077 96.6697 19.7033C96.6697 16.4514 97.6303 13.8658 99.5522 11.7958C101.474 9.72577 103.912 8.69202 106.868 8.69202C108.42 8.69202 109.898 8.98766 111.377 9.65266V11.7151C109.932 10.8306 108.267 10.3698 106.573 10.3852C104.208 10.3852 102.287 11.2726 100.808 12.9726C99.3303 14.6726 98.5822 16.8939 98.5822 19.6351C98.5822 22.2958 99.2472 24.3652 100.578 25.9914C101.908 27.6177 103.682 28.3564 105.899 28.3564C107.895 28.3564 109.668 27.8389 111.22 26.7314V28.5789L111.228 28.5714ZM123.497 11.1301C122.906 10.6926 122.167 10.4651 121.353 10.4651C119.728 10.4651 118.397 11.2777 117.363 12.9039C116.254 14.5289 115.738 16.8945 115.738 19.9245V29.4583H113.957V9.20828H115.731V13.7164H115.805C116.242 12.1645 116.987 10.982 118.022 10.0951C119.056 9.20827 120.165 8.84514 121.495 8.84514C122.233 8.84514 122.899 8.99265 123.49 9.22015V11.1414L123.497 11.1301ZM126.601 4.10952C126.226 4.10952 125.862 3.96203 125.567 3.67203C125.271 3.38203 125.129 3.00702 125.129 2.56327C125.129 2.11952 125.277 1.75077 125.567 1.5289C125.862 1.23327 126.232 1.15389 126.601 1.15389C127.038 1.15389 127.34 1.3014 127.71 1.5289C128.005 1.82452 128.147 2.12015 128.147 2.56327C128.147 3.0064 128 3.37578 127.71 3.67203C127.335 3.96766 127.045 4.10952 126.601 4.10952ZM125.713 29.532V9.28202H127.561V29.532H125.707H125.713ZM133.917 25.9108H133.843V38.8439H131.995V9.28265H133.843V13.4951H133.917C134.655 12.017 135.69 10.8345 137.02 10.0214C138.35 9.20828 139.828 8.83891 141.455 8.83891C144.042 8.83891 146.036 9.7264 147.515 11.4995C148.993 13.2726 149.658 15.712 149.658 18.742C149.658 22.142 148.846 24.8758 147.146 26.9452C145.521 29.0077 143.302 30.0489 140.568 30.0489C137.612 29.9752 135.395 28.6445 133.917 25.9102L133.917 25.9108ZM133.843 18.3733V20.9608C133.843 23.0233 134.508 24.7295 135.764 26.2076C137.02 27.6858 138.72 28.4245 140.789 28.4245C142.858 28.4245 144.558 27.537 145.814 25.7639C147.07 23.9908 147.735 21.6251 147.735 18.7433C147.735 16.2308 147.144 14.162 145.962 12.6833C144.779 11.2045 143.153 10.4664 141.232 10.4664C138.867 10.4664 137.019 11.2789 135.763 12.8314C134.507 14.3839 133.842 16.2314 133.842 18.3739L133.843 18.3733ZM160.963 29.2358C160.003 29.6733 159.116 29.9008 158.303 29.9008C155.273 29.9008 153.795 28.127 153.795 24.5058V10.9077H150.173V9.20765H153.795V3.96078C154.09 3.88703 154.386 3.7389 154.682 3.66515C154.978 3.5914 155.273 3.44328 155.57 3.36953V9.28202H160.891V10.982H155.57V24.3583C155.57 25.7627 155.792 26.797 156.235 27.3883C156.678 27.9795 157.417 28.3489 158.452 28.3489C159.19 28.3489 160.003 28.127 160.89 27.6102V29.2352H160.964L160.963 29.2358Z" fill="currentColor"></path>
</g>
<defs>
<clipPath id="clip0_17_68">
<rect width="100%" height="100%" fill="currentColor" transform="translate(0.957214 0.437988)"></rect>
</clipPath>
</defs>
</svg>